<svg id="Layer_1" data-name="Layer 1" xmlns="http://www.w3.org/2000/svg" viewBox="0 0 798.98 267.04"><defs><style>.cls-1{fill:#fff}</style></defs><path class="cls-1" d="M5364.13 2170.81H5168c-12.79 0-23.2 11.46-23.2 25.55v215.95c0 14.08 10.41 25.54 23.2 25.54h196.09c12.79 0 23.2-11.46 23.2-25.54v-215.95c.04-14.09-10.37-25.55-23.16-25.55Zm-3 163.53c-2.25-3.25-33-48.63-47-48.63s-32.9 26.85-32.9 26.85c-4-6.49-10.25-16.48-17.2-26.54-22.13-32-31.19-35.89-37.13-35.51s-14.36 5.17-42.2 57.47c-4.86 9.13-9.54 18.29-13.59 26.38v-134.68h190Z" transform="translate(-5144.84 -2170.81)"/><ellipse class="cls-1" cx="174.17" cy="67.26" rx="17.38" ry="19.14"/><path class="cls-1" d="M5645.27 2170.81h-196.09c-12.79 0-23.2 11.46-23.2 25.55v215.95c0 14.08 10.41 25.54 23.2 25.54h196.09c12.79 0 23.19-11.46 23.19-25.54v-215.95c0-14.09-10.4-25.55-23.19-25.55Zm-3 163.53c-2.26-3.25-33-48.63-47-48.63s-32.9 26.85-32.9 26.85c-4-6.49-10.24-16.48-17.2-26.54-22.12-32-31.19-35.89-37.12-35.51s-14.36 5.17-42.2 57.47c-4.86 9.13-9.54 18.29-13.6 26.38v-134.68h190.06Z" transform="translate(-5144.84 -2170.81)"/><ellipse class="cls-1" cx="455.31" cy="67.26" rx="17.38" ry="19.14"/><path class="cls-1" d="M5920.63 2170.81h-196.1c-12.79 0-23.19 11.46-23.19 25.55v215.95c0 14.08 10.4 25.54 23.19 25.54h196.1c12.79 0 23.19-11.46 23.19-25.54v-215.95c0-14.09-10.4-25.55-23.19-25.55Zm-3 163.53c-2.26-3.25-33-48.63-47-48.63s-32.9 26.85-32.9 26.85c-4-6.49-10.24-16.48-17.2-26.54-22.12-32-31.19-35.89-37.12-35.51s-14.36 5.17-42.2 57.47c-4.86 9.13-9.54 18.29-13.6 26.38v-134.68h190.06Z" transform="translate(-5144.84 -2170.81)"/><ellipse class="cls-1" cx="730.67" cy="67.26" rx="17.38" ry="19.14"/></svg>