<svg version="1.1" id="Layer_1" xmlns="http://www.w3.org/2000/svg" x="0" y="0" viewBox="0 0 11088 4608" style="enable-background:new 0 0 11088 4608" xml:space="preserve"><style>.st0{fill:#fff}</style><path class="st0" d="M5479.45 2119.33h-299.21c-19.52 0-35.39 15.88-35.39 35.39v299.22c0 19.51 15.88 35.39 35.39 35.39h299.21c19.52 0 35.39-15.88 35.39-35.39v-299.21c0-19.52-15.87-35.4-35.39-35.4zm-4.61 226.57c-3.44-4.5-50.39-67.38-71.77-67.38s-50.2 37.2-50.2 37.2c-6.06-8.99-15.63-22.84-26.25-36.78-33.75-44.33-47.59-49.72-56.65-49.2-8.88.53-21.91 7.17-64.39 79.64-7.41 12.65-14.55 25.34-20.74 36.55v-186.61h290v186.58z"/><circle class="st0" cx="5410.61" cy="2212.52" r="26.52"/><path class="st0" d="M5573.82 2484.75h185v-60.9h-185v60.9zm0-101.54h370v-60.9h-370v60.9zm185-162.34h-185v60.9h185v-60.9zm-185-101.54v60.9h370v-60.9h-370z"/></svg>