<svg id="Layer_1" data-name="Layer 1" xmlns="http://www.w3.org/2000/svg" viewBox="0 0 797.43 370"><defs><style>.cls-1{fill:#fff}</style></defs><path class="cls-1" d="M5907.66 2119.33h-299.22a35.44 35.44 0 0 0-35.39 35.4v299.21a35.43 35.43 0 0 0 35.39 35.39h299.22a35.43 35.43 0 0 0 35.39-35.39v-299.21a35.44 35.44 0 0 0-35.39-35.4Zm-4.61 226.57c-3.44-4.49-50.39-67.37-71.77-67.37s-50.2 37.2-50.2 37.2c-6.06-9-15.64-22.83-26.25-36.77-33.75-44.33-47.59-49.73-56.65-49.21-8.88.53-21.91 7.17-64.39 79.64-7.41 12.65-14.55 25.34-20.74 36.55v-186.61h290Z" transform="translate(-5145.62 -2119.33)"/><circle class="cls-1" cx="693.2" cy="93.19" r="26.52"/><path class="cls-1" d="M5515.62 2423.85h-185v60.9h185Zm0-101.54h-370v60.9h370Zm-185-40.54h185v-60.9h-185Zm-185-162.44v60.91h370v-60.91Z" transform="translate(-5145.62 -2119.33)"/></svg>